<svg width="80" height="80" fill="none" xmlns="http://www.w3.org/2000/svg"><g clip-path="url(#clip0)" filter="url(#filter0_d)"><path d="M59.929 38.995a3.785 3.785 0 00-5.357 0l-6.039 6.038c-2.8-.833-8.023-2.727-11.334-6.038-3.311-3.311-5.206-8.536-6.039-11.335l6.039-6.039a3.784 3.784 0 000-5.357L22.045 1.111a3.784 3.784 0 00-5.357 0L6.414 11.385a7.571 7.571 0 00-2.22 5.436c.087 5.395 1.516 24.132 16.283 38.9C35.244 70.487 53.98 71.911 59.38 72.002h.106c2 0 3.89-.788 5.322-2.22l10.275-10.274a3.785 3.785 0 000-5.357L59.929 38.995zm-.481 25.427c-4.728-.08-20.904-1.348-33.614-14.062C13.082 37.608 11.847 21.375 11.77 16.742l7.596-7.596 9.796 9.797-4.898 4.898a3.789 3.789 0 00-1.03 3.455c.09.436 2.314 10.767 8.603 17.056 6.289 6.288 16.62 8.512 17.055 8.603a3.754 3.754 0 003.456-1.027l4.902-4.898 9.796 9.797-7.6 7.595z" fill="#FF7B47"/></g><defs><clipPath id="clip0"><path fill="#fff" transform="translate(3.5)" d="M0 0h72v72H0z"/></clipPath><filter id="filter0_d" x="-.5" y="0" width="80" height="80" filterUnits="userSpaceOnUse" color-interpolation-filters="sRGB"><feFlood flood-opacity="0" result="BackgroundImageFix"/><feColorMatrix in="SourceAlpha" values="0 0 0 0 0 0 0 0 0 0 0 0 0 0 0 0 0 0 127 0"/><feOffset dy="4"/><feGaussianBlur stdDeviation="2"/><feColorMatrix values="0 0 0 0 0 0 0 0 0 0 0 0 0 0 0 0 0 0 0.25 0"/><feBlend in2="BackgroundImageFix" result="effect1_dropShadow"/><feBlend in="SourceGraphic" in2="effect1_dropShadow" result="shape"/></filter></defs></svg>